Coordinates
version=1
nRows=54
nColumns=12
inDegrees=yes

Units are S.I. units (second, meters, Newtons, ...)
Angles are in degrees

endheader
time	SC_y	SC_z	SC_x	AC_y	AC_z	AC_x	GH_y	GH_z	GH_yy	EL_x	PS_y
       0.0               -50.0         -3.894          40.88          65.88         -19.32          18.35          146.1           12.8          114.7           10.4          148.8
   0.02049               -50.0         -3.891          40.87          65.87         -19.32          18.34          146.1          12.81          114.7          10.41          148.8
   0.04098              -49.99         -3.889          40.87          65.87         -19.31          18.34          146.1          12.82          114.7          10.41          148.8
   0.06147              -49.99         -3.886          40.86          65.87         -19.31          18.34          146.1          12.83          114.7          10.41          148.8
   0.08196              -49.98         -3.884          40.85          65.87         -19.31          18.33          146.1          12.84          114.7          10.41          148.8
    0.1024              -49.97         -3.881          40.85          65.87          -19.3          18.33          146.1          12.85          114.7          10.42          148.7
    0.1229              -49.97         -3.878          40.84          65.87          -19.3          18.32          146.0          12.87          114.6          10.42          148.7
    0.1434              -49.96         -3.874          40.83          65.86          -19.3          18.32          146.0          12.88          114.6          10.42          148.7
    0.1639              -49.95         -3.871          40.82          65.86         -19.29          18.32          146.0           12.9          114.6          10.42          148.7
    0.1844              -49.94         -3.867          40.81          65.86         -19.29          18.31          146.0          12.91          114.6          10.43          148.7
    0.2049              -49.93         -3.863           40.8          65.86         -19.28           18.3          146.0          12.93          114.6          10.43          148.7
    0.2254              -49.92         -3.859          40.79          65.85         -19.28           18.3          145.9          12.95          114.6          10.44          148.6
    0.2459              -49.91         -3.854          40.78          65.85         -19.27          18.29          145.9          12.97          114.6          10.44          148.6
    0.2664               -49.9         -3.849          40.76          65.85         -19.27          18.28          145.9          12.99          114.5          10.44          148.6
    0.2869              -49.89         -3.843          40.75          65.84         -19.26          18.28          145.9          13.01          114.5          10.45          148.6
    0.3073              -49.87         -3.837          40.73          65.84         -19.25          18.27          145.8          13.04          114.5          10.45          148.5
    0.3278              -49.86         -3.831          40.72          65.84         -19.24          18.26          145.8          13.07          114.5          10.46          148.5
    0.3483              -49.84         -3.824           40.7          65.83         -19.24          18.25          145.8           13.1          114.5          10.47          148.5
    0.3688              -49.82         -3.816          40.68          65.83         -19.23          18.24          145.7          13.13          114.4          10.47          148.4
    0.3893               -49.8         -3.808          40.65          65.82         -19.22          18.23          145.7          13.17          114.4          10.48          148.4
    0.4098              -49.78         -3.798          40.63          65.82         -19.21          18.21          145.6          13.21          114.4          10.49          148.3
    0.4303              -49.76         -3.788           40.6          65.81         -19.19           18.2          145.6          13.25          114.3           10.5          148.3
    0.4508              -49.73         -3.777          40.57           65.8         -19.18          18.18          145.5           13.3          114.3          10.51          148.2
    0.4713               -49.7         -3.764          40.54          65.79         -19.17          18.17          145.5          13.35          114.3          10.52          148.2
    0.4918              -49.67          -3.75           40.5          65.78         -19.15          18.15          145.4          13.41          114.2          10.53          148.1
    0.5122              -49.64         -3.735          40.46          65.78         -19.13          18.13          145.3          13.48          114.2          10.54          148.0
    0.5327               -49.6         -3.718          40.42          65.76         -19.11           18.1          145.2          13.55          114.1          10.56          147.9
    0.5532              -49.55         -3.698          40.37          65.75         -19.09          18.08          145.1          13.63          114.0          10.58          147.8
    0.5737               -49.5         -3.676          40.31          65.74         -19.06          18.04          145.0          13.73          114.0           10.6          147.7
    0.5942              -49.44         -3.651          40.24          65.72         -19.03          18.01          144.9          13.84          113.9          10.62          147.6
    0.6147              -49.38         -3.622          40.17           65.7          -19.0          17.97          144.7          13.96          113.8          10.64          147.5
    0.6352               -49.3         -3.589          40.08          65.68         -18.96          17.92          144.5           14.1          113.7          10.67          147.3
    0.6557              -49.21         -3.551          39.98          65.66         -18.92          17.87          144.4          14.26          113.5           10.7          147.1
    0.6762              -49.11         -3.507          39.86          65.63         -18.86          17.81          144.1          14.45          113.4          10.74          146.9
    0.6967              -48.99         -3.456          39.73           65.6          -18.8          17.74          143.9          14.67          113.2          10.79          146.6
    0.7171              -48.85         -3.395          39.57          65.56         -18.73          17.66          143.5          14.93          113.0          10.84          146.3
    0.7376              -48.68         -3.323          39.38          65.51         -18.65          17.56          143.2          15.24          112.8           10.9          146.0
    0.7581              -48.49         -3.236          39.15          65.46         -18.54          17.44          142.7          15.61          112.5          10.98          145.5
    0.7786              -48.24         -3.131          38.88          65.39         -18.42          17.29          142.2          16.06          112.1          11.07          145.0
    0.7991              -47.95         -3.003          38.54          65.31         -18.27          17.11          141.5           16.6          111.7          11.18          144.4
    0.8196              -47.58         -2.846          38.12          65.21         -18.09          16.89          140.7          17.28          111.2          11.32          143.6
    0.8401              -47.13         -2.649           37.6          65.09         -17.85          16.62          139.7          18.12          110.5           11.5          142.6
    0.8606              -46.56         -2.401          36.95          64.93         -17.56          16.28          138.4          19.18          109.7          11.71          141.4
    0.8811              -45.83         -2.085          36.12          64.73         -17.19          15.84          136.8          20.52          108.6          11.99          139.8
    0.9016               -44.9         -1.682          35.06          64.47         -16.71          15.28          134.7          22.25          107.2          12.34          137.8
     0.922               -43.7         -1.164           33.7          64.15         -16.11          14.56          132.0          24.46          105.5           12.8          135.3
    0.9425              -42.18        -0.5018          31.96          63.73         -15.33          13.65          128.6          27.29          103.2          13.38          132.0
     0.963              -40.26         0.3302          29.77           63.2         -14.35          12.49          124.3          30.84          100.4           14.1          127.8
    0.9835              -37.92          1.344           27.1          62.56         -13.15          11.09          119.0          35.18           97.0          14.99          122.8
     1.004               -35.2          2.519          24.01          61.81         -11.77          9.461          113.0           40.2          93.03          16.02          117.0
     1.024              -32.27          3.792          20.66          61.01         -10.27          7.698          106.4          45.63          88.73          17.14          110.6
     1.045              -29.33          5.064          17.31           60.2         -8.775          5.935          99.81          51.07          84.43          18.25          104.3
     1.065              -26.62           6.24          14.22          59.46         -7.391          4.307          93.74          56.09          80.46          19.28           98.5
     1.086              -24.28          7.253          11.55          58.81         -6.198          2.902          88.49          60.42          77.03          20.17          93.46
